<?xml version="1.0" encoding="UTF-8"?>
<svg enable-background="new 0 0 1534.06 1692.258" version="1.1" viewBox="0 0 1534.06 1692.258" xmlns="http://www.w3.org/2000/svg">
 <path d="m1432.7 905.76c172.16-430.18-38.201-804.69-513.98-854.38-420.11-43.881-653.79 194.68-686.64 441.13-3.481 26.388 0 52.776 12.442 80.161-57.715 90.119-190.57 223.06-202.01 286.79-6.968 38.337 38.311 51.78 60.206 65.224 20.899 6.971 43.785 1.99 57.715 18.92 9.951 12.448-3.481 33.359-6.47 48.794-0.498 25.392-30.346 37.84-27.363 61.24 2.989 19.916 19.903 27.883 35.328 40.33 16.421 12.944-41.798 37.839-22.892 60.743 19.404 22.404 47.77 48.295 37.813 80.16-14.429 49.291-42.296 100.57-19.405 138.91 22.892 37.84 54.732 60.244 103.99 70.2 60.671 0 121.65 0.931 182.7 1.327 33.999 0.221 64.925 19.568 80.147 49.97 24.314 48.561 34.143 98.874 30.219 150.85h781.67c-32.843-154.35-72.15-408.27-55.23-470.51 27.867-105.55 117.92-185.22 151.76-269.86zm-505.5 622.63h-9e-3c-17.784 35.449-54.471 60.295-96.817 60.295-42.099 0-79.391-25.222-97.322-60.295h194.14c0-9e-3 9e-3 -9e-3 9e-3 -0.018v0.018zm69.146-52.279c0 11.511-8.466 20.857-18.912 20.857h-294.57c-10.465 0-18.949-9.346-18.949-20.857v-19.719c0-11.52 8.484-20.866 18.949-20.866h294.57c10.447 0 18.912 9.346 18.912 20.866v19.719zm0-89.792c0 11.52-8.466 20.866-18.912 20.866h-294.57c-10.465 0-18.949-9.346-18.949-20.866v-19.719c0-11.511 8.484-20.857 18.949-20.857h294.57c10.447 0 18.912 9.346 18.912 20.857v19.719zm0-89.764c0 11.492-8.466 20.838-18.912 20.838h-294.57c-10.465 0-18.949-9.346-18.949-20.838v-19.738c0-11.492 8.484-20.838 18.949-20.838h294.57c10.447 0 18.912 9.346 18.912 20.838v19.738zm189.85-559.47c-100.85 181.7-127.54 283.72-144 382.46-13.803 82.748-32.835 101.81-95.386 101.81h-232.96c-62.524 0-82.032-19.041-95.845-101.81-16.445-98.762-43.135-200.76-144-382.46-33.78-60.947-54.572-130.31-54.572-204.99 0-226.82 184.1-410.9 410.9-410.9 226.82 0 410.44 184.08 410.44 410.9 0 74.676-20.783 144.04-54.572 204.99z"/>
 <g fill="none" stroke="#000" stroke-miterlimit="10" stroke-width="3.8064">
  <line x1="506.38" x2="630.05" y1="417.21" y2="246.99"/>
  <line x1="506.38" x2="830.16" y1="417.21" y2="181.97"/>
  <line x1="506.38" x2="1030.3" y1="417.21" y2="246.99"/>
  <line x1="506.38" x2="1153.9" y1="417.21" y2="417.21"/>
  <line x1="506.38" x2="1153.9" y1="417.21" y2="627.61"/>
  <line x1="506.38" x2="1030.3" y1="417.21" y2="797.83"/>
  <line x1="506.38" x2="830.16" y1="417.21" y2="862.85"/>
  <line x1="506.38" x2="630.05" y1="417.21" y2="797.83"/>
  <line x1="506.38" x2="506.38" y1="417.21" y2="627.61"/>
  <line x1="630.05" x2="830.16" y1="246.99" y2="181.97"/>
  <line x1="630.05" x2="1030.3" y1="246.99" y2="246.99"/>
  <line x1="630.05" x2="1153.9" y1="246.99" y2="417.21"/>
  <line x1="630.05" x2="1153.9" y1="246.99" y2="627.61"/>
  <line x1="630.05" x2="1030.3" y1="246.99" y2="797.83"/>
  <line x1="630.05" x2="830.16" y1="246.99" y2="862.85"/>
  <line x1="630.05" x2="630.05" y1="246.99" y2="797.83"/>
  <line x1="630.05" x2="506.38" y1="246.99" y2="627.61"/>
  <line x1="830.16" x2="1030.3" y1="181.97" y2="246.99"/>
  <line x1="830.16" x2="1153.9" y1="181.97" y2="417.21"/>
  <line x1="830.16" x2="1153.9" y1="181.97" y2="627.61"/>
  <line x1="830.16" x2="1030.3" y1="181.97" y2="797.83"/>
  <line x1="830.16" x2="830.16" y1="181.97" y2="862.85"/>
  <line x1="830.16" x2="630.05" y1="181.97" y2="797.83"/>
  <line x1="830.16" x2="506.38" y1="181.97" y2="627.61"/>
  <line x1="1030.3" x2="1153.9" y1="246.99" y2="417.21"/>
  <line x1="1030.3" x2="1153.9" y1="246.99" y2="627.61"/>
  <line x1="1030.3" x2="1030.3" y1="246.99" y2="797.83"/>
  <line x1="1030.3" x2="830.16" y1="246.99" y2="862.85"/>
  <line x1="1030.3" x2="630.05" y1="246.99" y2="797.83"/>
  <line x1="1030.3" x2="506.38" y1="246.99" y2="627.61"/>
  <line x1="1153.9" x2="1153.9" y1="417.21" y2="627.61"/>
  <line x1="1153.9" x2="1030.3" y1="417.21" y2="797.83"/>
  <line x1="1153.9" x2="830.16" y1="417.21" y2="862.85"/>
  <line x1="1153.9" x2="630.05" y1="417.21" y2="797.83"/>
  <line x1="1153.9" x2="506.38" y1="417.21" y2="627.61"/>
  <line x1="1153.9" x2="1030.3" y1="627.61" y2="797.83"/>
  <line x1="1153.9" x2="830.16" y1="627.61" y2="862.85"/>
  <line x1="1153.9" x2="630.05" y1="627.61" y2="797.83"/>
  <line x1="1153.9" x2="506.38" y1="627.61" y2="627.61"/>
  <line x1="1030.3" x2="830.16" y1="797.83" y2="862.85"/>
  <line x1="1030.3" x2="630.05" y1="797.83" y2="797.83"/>
  <line x1="1030.3" x2="506.38" y1="797.83" y2="627.61"/>
  <line x1="830.16" x2="630.05" y1="862.85" y2="797.83"/>
  <line x1="830.16" x2="506.38" y1="862.85" y2="627.61"/>
  <line x1="630.05" x2="506.38" y1="797.83" y2="627.61"/>
 </g>
</svg>
